<?xml version="1.0" encoding="UTF-8"?>
<svg xmlns="http://www.w3.org/2000/svg" viewBox="0 0 906.11 541.93">
  <defs>
    <style>
      .cls-1, .cls-2 {
        fill: none;
      }

      .cls-2 {
        stroke: #231f20;
        stroke-miterlimit: 10;
      }
    </style>
  </defs>
  <g id="Layer_1" data-name="Layer 1">
    <g id="mad-scientist-text">
      <path class="cls-2" d="M154.71,119.12l.63-13.26c1.43,3.64,3.53,7.02,6.17,9.92,1.4-3.62,2.8-7.24,4.2-10.86.05,6.67.73,13.34,2.02,19.89"/>
      <path class="cls-2" d="M171.18,114.85l2.44-14.36c3.15,6.08,5.66,12.5,7.46,19.1"/>
      <path class="cls-2" d="M191.08,119.1c-1.47-4.75-2.13-9.75-1.96-14.73,3.38-.79,1.16-.7,4.62-.5,2.43.14,5.14.7,6.46,2.74,1.74,2.69.02,6.36-2.37,8.5s-5.45,3.56-7.39,6.1-2.07,6.98.84,8.33"/>
      <path class="cls-2" d="M167.77,107.68l13.78-.53"/>
      <path class="cls-2" d="M229.42,109.75c-1.95-.75-4.02-1.52-6.09-1.18s-4.03,2.24-3.64,4.3c.72,3.79,6.68,2.73,9.8,5.01,2.57,1.88,2.3,6.47-.48,8.04-1.19.67-2.62.8-3.87,1.36s-2.4,1.86-2.01,3.17"/>
      <path class="cls-2" d="M241.49,111.89c-3.22-.33-6.4,2.52-6.41,5.76-.01,3.24,3.14,6.12,6.36,5.82"/>
      <path class="cls-2" d="M249.99,111.98c.48,3.96.96,7.92,1.44,11.88"/>
      <path class="cls-2" d="M246.73,101.53c-1.31,1.18-.21,3.79,1.55,3.83s3.03-2.23,2.22-3.8-3.17-1.95-4.56-.86"/>
      <path class="cls-2" d="M259.02,116.37l6.43-1.06c.2-2.78-3.46-4.81-5.92-3.49s-3.03,4.98-1.45,7.28,4.78,3.15,7.47,2.43"/>
      <path class="cls-2" d="M274.65,125.28c.14-2.29-1.28-4.36-1.79-6.6s.74-5.31,3.02-5.02c.86.11,1.58.7,2.21,1.31,2.65,2.56,4.58,5.85,5.53,9.41"/>
      <path class="cls-2" d="M285.54,100.12c1.68,8.57,3.37,17.13,5.05,25.7"/>
      <path class="cls-2" d="M277.06,109.51c6.34-.8,12.67-1.6,19.01-2.4"/>
      <path class="cls-2" d="M309.22,110.37c-2.54-1.61-6.47.94-6.04,3.91,2.09,1,4.57.38,6.86.68s4.75,2.65,3.57,4.64c-1.02,1.72-3.58,1.33-5.48.72"/>
      <path class="cls-2" d="M316.67,98.63c2.68,8.08,5.35,16.17,8.03,24.25"/>
      <path class="cls-2" d="M314.14,110.08c4.23-.33,8.41-1.29,12.36-2.84"/>
      <path class="cls-2" d="M295.08,113.41c.05,3.1.73,6.18,1.99,9.01"/>
      <path class="cls-2" d="M291.07,98.85c-1.03,1.3-.18,3.57,1.45,3.88s3.25-1.5,2.76-3.09-2.84-2.18-4.02-1.02"/>
    </g>
    <g id="ariel-klevecz-text">
      <path class="cls-2" d="M91.8,64.48c-.55-2.16-3.6-2.37-5.68-1.58-3.86,1.48-6.93,4.87-8.02,8.86-.42,1.52-.54,3.22.16,4.63s2.44,2.39,3.92,1.83c4.51-1.71,6.18-7.11,7.26-11.82-.56,3.11.92,6.49,3.59,8.19,1.15-.46,2.02-1.54,2.24-2.76"/>
      <path class="cls-2" d="M98.98,75.12c.34-1.65-.73-3.22-1.27-4.82s-.1-3.94,1.58-4.1c.82-.08,1.56.43,2.32.71s1.84.25,2.17-.5"/>
      <path class="cls-2" d="M108.38,67.63c-.15,2.33.16,4.69.91,6.91"/>
      <path class="cls-2" d="M106.94,57.82c-1.22,1.32.35,3.9,2.09,3.43.62-1.63-.72-3.66-2.46-3.75"/>
      <path class="cls-2" d="M116.49,70.07l4.53-1c.12-1.96-2.82-3.02-4.26-1.7s-1.15,3.88.26,5.24,3.55,1.7,5.49,1.45"/>
      <path class="cls-2" d="M159.07,55.32c.06,8.94.69,17.87,1.87,26.73"/>
      <path class="cls-2" d="M173.14,59.13c-4.38,4.31-9.09,8.29-14.06,11.9,4.5,3.11,8.73,6.62,12.61,10.47"/>
      <path class="cls-2" d="M178.83,57.4l3.68,22.86"/>
      <path class="cls-2" d="M187.66,69.21l5.93-.42c-1.06-1.54-2.51-3.27-4.38-3.06-2.35.27-3.12,3.68-1.76,5.61s3.86,2.63,6.18,3.06"/>
      <path class="cls-2" d="M196.78,66.67l5.15,9.56c-.12-3.28.19-6.56.91-9.76"/>
      <path class="cls-2" d="M209.59,70.73l5.57-1.03c.34-1.98-2.4-3.5-4.13-2.46s-2.01,3.64-.92,5.33,3.15,2.54,5.16,2.7"/>
      <path class="cls-2" d="M229.15,68.78c-1.23-1.85-4.27-1.97-5.8-.36s-1.4,4.43.12,6.06,4.11,2.03,6.16,1.16"/>
      <path class="cls-2" d="M232.99,68.06l8.63.75c-3.49,2.48-6.28,5.95-7.96,9.89,2.88-.09,5.76-.18,8.64-.27"/>
      <path class="cls-2" d="M126.34,54.49c.8,7.76,1.6,15.52,2.4,23.28"/>
    </g>
  </g>
  <g id="desktop-home">
    <g id="ar-button">
      <path class="cls-2" d="M478.01,264.83c4.68-15.77,9.37-31.55,14.05-47.32,5.77,15.07,10.2,30.65,13.21,46.51"/>
      <path class="cls-2" d="M462.12,243.52c14.66,1.56,29.48,1.72,44.17.47"/>
      <path class="cls-2" d="M513.76,219.84c2.52,15.17,3.77,30.55,3.74,45.93"/>
      <path class="cls-2" d="M502.71,219.42c13.99,1.89,28.08,3,42.2,3.32-9.63,5.49-19.26,10.98-28.89,16.47,9.06,5.2,17.4,11.64,24.71,19.09,2.36,2.4,4.71,4.97,7.81,6.27s7.23.88,9.11-1.91"/>
      <rect id="ar-click-box" class="cls-1" x="453.2" y="196.72" width="117.63" height="81.64"/>
    </g>
    <g id="ai-button">
      <path class="cls-2" d="M484.13,384.54c.86-15.39,3.23-30.7,7.06-45.63,8.47,17.05,17.95,33.59,28.39,49.51"/>
      <path class="cls-2" d="M465.81,373.76c25.95-1.22,51.81-4.49,77.25-9.78"/>
      <path class="cls-2" d="M535.59,337.76c1.74,12.56,4.71,24.96,8.86,36.94"/>
      <path class="cls-2" d="M517.57,341.2c11-.3,21.96-1.86,32.6-4.64"/>
      <path class="cls-2" d="M536.64,379.96c6.15-4.43,13.52-7.16,21.07-7.8"/>
      <rect id="ai-click-box" class="cls-1" x="460.07" y="323.95" width="111.12" height="73.94"/>
    </g>
    <g id="writing-button">
      <path class="cls-2" d="M433.04,92.57c2.54,10.82,5.83,21.46,9.86,31.82.77-6.39,2.45-12.66,4.99-18.57,5.1,6.58,10.19,13.16,15.29,19.74-2.75-13.76-3.74-27.87-2.94-41.88"/>
      <path class="cls-2" d="M472.49,122.24c.46-9.34.14-18.71-.93-28,4.94,1.16,9.87,2.32,14.81,3.49-5.74,2.86-11.36,5.96-16.84,9.28,9.44,2.63,18.21,7.63,25.28,14.42"/>
      <path class="cls-2" d="M502.21,98.31c-.36,8.02.37,16.09,2.17,23.92"/>
      <path class="cls-2" d="M501.45,90.44l1.8-3.57"/>
      <path class="cls-2" d="M517.93,85.82c-.05,14.47-.03,28.94.07,43.41,3.97-3.59,8.35-6.72,13.02-9.32"/>
      <path class="cls-2" d="M508.63,105.51c6.79-.06,13.57-.11,20.36-.17"/>
      <path class="cls-2" d="M539.7,102.96c0,8.09,0,16.19,0,24.28"/>
      <path class="cls-2" d="M540.77,94.74l4.64-4.64"/>
      <path class="cls-2" d="M551.48,100.1v25.71"/>
      <path class="cls-2" d="M551.18,107.51c4.02-.8,7.94-2.11,11.64-3.88.52,8.82,1.05,17.64,1.57,26.47"/>
      <path class="cls-2" d="M588.99,121.87c-5.07-3.85-9.69-8.29-13.73-13.2,7.13.07,14.27-1.91,20.35-5.64-4.09,16.16-8.19,32.32-12.28,48.48-12.47-5.85-27.12-6.91-40.31-2.91"/>
      <rect id="writing-click-box" class="cls-1" x="415.33" y="70.37" width="199.35" height="88.08"/>
    </g>
    <g id="beaker-object">
      <path id="beaker" class="cls-2" d="M157.43,302.91c8.64,43.59-13.92,87.31-41.06,122.5-3.93,5.1-8.2,11.58-5.58,17.46,2.43,5.47,9.36,6.96,15.3,7.69,47.24,5.85,94.88,8.49,142.48,7.91,7.22-.09,15.83-1.07,19.16-7.48,1.77-3.41,1.47-7.53.48-11.24-4.85-18.27-23.23-28.79-37.44-41.24-28.68-25.13-43.49-65.18-38.08-102.92-13.71,13.47-36.22,9.29-54.75,4.18-2.98-3.86,3.27-8.18,8.1-8.89,13.44-1.97,27.2-1.76,40.58.6"/>
      <path id="bubble-3" class="cls-2" d="M160.17,232.59c-4.37,3.46-.75,11.93,4.82,11.73,5.57-.2,8.96-7.78,5.92-12.46s-10.49-5.18-14.68-1.5"/>
      <path id="bubble-2" class="cls-2" d="M203.82,251.07c-5.07,2.68-8.89,8.3-8.05,13.97.84,5.67,7.47,10.14,12.65,7.68,4.49-2.13,5.93-8.3,4.04-12.9s-6.24-7.75-10.79-9.76"/>
      <path id="bubble-1" class="cls-2" d="M156.22,269.72c-2.69,2.29-3.09,6.8-.84,9.52s6.75,3.19,9.51.98c1.31-4.81-2.42-10.34-7.37-10.94"/>
      <path id="slime-line" class="cls-2" d="M142.35,385.09c5.8-11,23.42-12.93,31.47-3.46,4.49-2.58,8.16-6.58,10.33-11.28,5.55,6.28,11.11,12.57,16.66,18.85,1.47-9.42-.03-19.27-4.22-27.83,4.75-1.17,9.16,2.97,11.55,7.23s4.07,9.26,8.09,12.05,14.18-1.26,14.01-6.15"/>
    </g>
  </g>
</svg>