<?xml version="1.0" encoding="UTF-8"?>
<svg xmlns="http://www.w3.org/2000/svg" viewBox="0 0 335.96 560.68">
  <defs>
    <style>
      .cls-1, .cls-2 {
        fill: none;
      }

      .cls-2 {
        stroke: #231f20;
        stroke-miterlimit: 10;
      }
    </style>
  </defs>
  <g id="mobile-home">
    <g id="ariel-klevecz-text">
      <path class="cls-2" d="M57.65,61.64c-.55-2.16-3.6-2.37-5.68-1.58-3.86,1.48-6.93,4.87-8.02,8.86-.42,1.52-.54,3.22.16,4.63s2.44,2.39,3.92,1.83c4.51-1.71,6.18-7.11,7.26-11.82-.56,3.11.92,6.49,3.59,8.19,1.15-.46,2.02-1.54,2.24-2.76"/>
      <path class="cls-2" d="M64.83,72.28c.34-1.65-.73-3.22-1.27-4.82s-.1-3.94,1.58-4.1c.82-.08,1.56.43,2.32.71s1.84.25,2.17-.5"/>
      <path class="cls-2" d="M74.23,64.79c-.15,2.33.16,4.69.91,6.91"/>
      <path class="cls-2" d="M72.79,54.98c-1.22,1.32.35,3.9,2.09,3.43.62-1.63-.72-3.66-2.46-3.75"/>
      <path class="cls-2" d="M82.34,67.23l4.53-1c.12-1.96-2.82-3.02-4.26-1.7s-1.15,3.88.26,5.24,3.55,1.7,5.49,1.45"/>
      <path class="cls-2" d="M124.92,52.48c.06,8.94.69,17.87,1.87,26.73"/>
      <path class="cls-2" d="M138.99,56.29c-4.38,4.31-9.09,8.29-14.06,11.9,4.5,3.11,8.73,6.62,12.61,10.47"/>
      <path class="cls-2" d="M144.68,54.55l3.68,22.86"/>
      <path class="cls-2" d="M153.51,66.37l5.93-.42c-1.06-1.54-2.51-3.27-4.38-3.06-2.35.27-3.12,3.68-1.76,5.61s3.86,2.63,6.18,3.06"/>
      <path class="cls-2" d="M162.63,63.83l5.15,9.56c-.12-3.28.19-6.56.91-9.76"/>
      <path class="cls-2" d="M175.44,67.88l5.57-1.03c.34-1.98-2.4-3.5-4.13-2.46s-2.01,3.64-.92,5.33,3.15,2.54,5.16,2.7"/>
      <path class="cls-2" d="M195,65.93c-1.23-1.85-4.27-1.97-5.8-.36s-1.4,4.43.12,6.06,4.11,2.03,6.16,1.16"/>
      <path class="cls-2" d="M198.84,65.21l8.63.75c-3.49,2.48-6.28,5.95-7.96,9.89,2.88-.09,5.76-.18,8.64-.27"/>
      <path class="cls-2" d="M92.19,51.64c.8,7.76,1.6,15.52,2.4,23.28"/>
    </g>
    <g id="mad-scientist-text">
      <path class="cls-2" d="M120.56,116.28l.63-13.26c1.43,3.64,3.53,7.02,6.17,9.92,1.4-3.62,2.8-7.24,4.2-10.86.05,6.67.73,13.34,2.02,19.89"/>
      <path class="cls-2" d="M137.03,112.01l2.44-14.36c3.15,6.08,5.66,12.5,7.46,19.1"/>
      <path class="cls-2" d="M156.93,116.26c-1.47-4.75-2.13-9.75-1.96-14.73,3.38-.79,1.16-.7,4.62-.5,2.43.14,5.14.7,6.46,2.74,1.74,2.69.02,6.36-2.37,8.5s-5.45,3.56-7.39,6.1-2.07,6.98.84,8.33"/>
      <path class="cls-2" d="M133.62,104.84l13.78-.53"/>
      <path class="cls-2" d="M195.27,106.91c-1.95-.75-4.02-1.52-6.09-1.18s-4.03,2.24-3.64,4.3c.72,3.79,6.68,2.73,9.8,5.01,2.57,1.88,2.3,6.47-.48,8.04-1.19.67-2.62.8-3.87,1.36s-2.4,1.86-2.01,3.17"/>
      <path class="cls-2" d="M207.34,109.05c-3.22-.33-6.4,2.52-6.41,5.76-.01,3.24,3.14,6.12,6.36,5.82"/>
      <path class="cls-2" d="M215.84,109.14c.48,3.96.96,7.92,1.44,11.88"/>
      <path class="cls-2" d="M212.58,98.69c-1.31,1.18-.21,3.79,1.55,3.83s3.03-2.23,2.22-3.8-3.17-1.95-4.56-.86"/>
      <path class="cls-2" d="M224.87,113.53l6.43-1.06c.2-2.78-3.46-4.81-5.92-3.49s-3.03,4.98-1.45,7.28,4.78,3.15,7.47,2.43"/>
      <path class="cls-2" d="M240.5,122.44c.14-2.29-1.28-4.36-1.79-6.6s.74-5.31,3.02-5.02c.86.11,1.58.7,2.21,1.31,2.65,2.56,4.58,5.85,5.53,9.41"/>
      <path class="cls-2" d="M251.39,97.28c1.68,8.57,3.37,17.13,5.05,25.7"/>
      <path class="cls-2" d="M242.91,106.66c6.34-.8,12.67-1.6,19.01-2.4"/>
      <path class="cls-2" d="M275.07,107.53c-2.54-1.61-6.47.94-6.04,3.91,2.09,1,4.57.38,6.86.68s4.75,2.65,3.57,4.64c-1.02,1.72-3.58,1.33-5.48.72"/>
      <path class="cls-2" d="M282.52,95.78c2.68,8.08,5.35,16.17,8.03,24.25"/>
      <path class="cls-2" d="M279.99,107.24c4.23-.33,8.41-1.29,12.36-2.84"/>
      <path class="cls-2" d="M260.93,110.57c.05,3.1.73,6.18,1.99,9.01"/>
      <path class="cls-2" d="M256.92,96c-1.03,1.3-.18,3.57,1.45,3.88s3.25-1.5,2.76-3.09-2.84-2.18-4.02-1.02"/>
    </g>
    <g id="ar-button">
      <path class="cls-2" d="M199.53,265.01c4.68-15.77,9.37-31.55,14.05-47.32,5.77,15.07,10.2,30.65,13.21,46.51"/>
      <path class="cls-2" d="M183.64,243.7c14.66,1.56,29.48,1.72,44.17.47"/>
      <path class="cls-2" d="M235.29,220.03c2.52,15.17,3.77,30.55,3.74,45.93"/>
      <path class="cls-2" d="M224.24,219.6c13.99,1.89,28.08,3,42.2,3.32-9.63,5.49-19.26,10.98-28.89,16.47,9.06,5.2,17.4,11.64,24.71,19.09,2.36,2.4,4.71,4.97,7.81,6.27s7.23.88,9.11-1.91"/>
      <rect id="ar-click-box" class="cls-1" x="174.73" y="196.9" width="117.63" height="81.64"/>
    </g>
    <g id="ai-button">
      <path class="cls-2" d="M46.56,257.49c.86-15.39,3.23-30.7,7.06-45.63,8.47,17.05,17.95,33.59,28.39,49.51"/>
      <path class="cls-2" d="M28.24,246.71c25.95-1.22,51.81-4.49,77.25-9.78"/>
      <path class="cls-2" d="M98.02,210.71c1.74,12.56,4.71,24.96,8.86,36.94"/>
      <path class="cls-2" d="M80,214.15c11-.3,21.96-1.86,32.6-4.64"/>
      <path class="cls-2" d="M99.07,252.91c6.15-4.43,13.52-7.16,21.07-7.8"/>
      <rect id="ai-click-box" class="cls-1" x="22.5" y="196.9" width="111.12" height="73.94"/>
    </g>
    <g id="writing-button">
      <path class="cls-2" d="M70.08,319.14c2.54,10.82,5.83,21.46,9.86,31.82.77-6.39,2.45-12.66,4.99-18.57,5.1,6.58,10.19,13.16,15.29,19.74-2.75-13.76-3.74-27.87-2.94-41.88"/>
      <path class="cls-2" d="M109.52,348.81c.46-9.34.14-18.71-.93-28,4.94,1.16,9.87,2.32,14.81,3.49-5.74,2.86-11.36,5.96-16.84,9.28,9.44,2.63,18.21,7.63,25.28,14.42"/>
      <path class="cls-2" d="M139.24,324.88c-.36,8.02.37,16.09,2.17,23.92"/>
      <path class="cls-2" d="M138.49,317.01l1.8-3.57"/>
      <path class="cls-2" d="M154.96,312.38c-.05,14.47-.03,28.94.07,43.41,3.97-3.59,8.35-6.72,13.02-9.32"/>
      <path class="cls-2" d="M145.67,332.08c6.79-.06,13.57-.11,20.36-.17"/>
      <path class="cls-2" d="M176.73,329.53c0,8.09,0,16.19,0,24.28"/>
      <path class="cls-2" d="M177.81,321.31l4.64-4.64"/>
      <path class="cls-2" d="M188.52,326.67v25.71"/>
      <path class="cls-2" d="M188.21,334.08c4.02-.8,7.94-2.11,11.64-3.88.52,8.82,1.05,17.64,1.57,26.47"/>
      <path class="cls-2" d="M226.03,348.44c-5.07-3.85-9.69-8.29-13.73-13.2,7.13.07,14.27-1.91,20.35-5.64-4.09,16.16-8.19,32.32-12.28,48.48-12.47-5.85-27.12-6.91-40.31-2.91"/>
      <rect id="writing-click-box" class="cls-1" x="52.36" y="296.94" width="199.35" height="88.08"/>
    </g>
  </g>
  <g id="desktop-home">
    <g id="beaker-object">
      <path id="beaker" class="cls-2" d="M127.72,440.08c5.58,28.14-8.99,56.37-26.51,79.08-2.54,3.29-5.3,7.48-3.6,11.27,1.57,3.53,6.04,4.49,9.88,4.97,30.5,3.78,61.25,5.48,91.98,5.1,4.66-.06,10.22-.69,12.37-4.83,1.14-2.2.95-4.86.31-7.26-3.13-11.8-15-18.58-24.17-26.63-18.51-16.22-28.08-42.08-24.59-66.44-8.85,8.69-23.38,6-35.35,2.7-1.92-2.49,2.11-5.28,5.23-5.74,8.68-1.27,17.56-1.14,26.2.39"/>
      <path id="bubble-3" class="cls-2" d="M129.49,394.69c-2.82,2.24-.49,7.7,3.11,7.57s5.79-5.02,3.82-8.04-6.77-3.35-9.48-.97"/>
      <path id="bubble-2" class="cls-2" d="M157.67,406.61c-3.27,1.73-5.74,5.36-5.19,9.02s4.82,6.55,8.17,4.96c2.9-1.38,3.83-5.36,2.61-8.33s-4.03-5-6.96-6.3"/>
      <path id="bubble-1" class="cls-2" d="M126.94,418.65c-1.74,1.48-1.99,4.39-.54,6.15s4.36,2.06,6.14.63c.84-3.11-1.56-6.68-4.76-7.06"/>
      <path id="slime-line" class="cls-2" d="M117.99,493.14c3.75-7.1,15.12-8.35,20.32-2.23,2.9-1.67,5.26-4.25,6.67-7.29,3.59,4.06,7.17,8.11,10.76,12.17.95-6.08-.02-12.44-2.73-17.97,3.06-.76,5.91,1.92,7.45,4.67s2.63,5.98,5.22,7.78,9.15-.81,9.04-3.97"/>
    </g>
  </g>
</svg>