<?xml version="1.0" encoding="UTF-8"?>
<svg id="adventures" xmlns="http://www.w3.org/2000/svg" viewBox="0 0 388.75 85.82">
  <defs>
    <style>
      .cls-1 {
        fill: none;
        stroke: #231f20;
        stroke-miterlimit: 10;
        stroke-width: 2px;
      }
    </style>
  </defs>
  <path class="cls-1" d="M9.56,62.22c5.82-13.91,10.38-28.35,13.62-43.07,3.3,13.53,7.67,26.8,13.05,39.65"/>
  <path class="cls-1" d="M0,43.79c17.04,0,21.42-.98,38.47-.98"/>
  <path class="cls-1" d="M68.77,23.94c3.84,9.25,7.68,18.49,11.52,27.74,3.41-8.48,6.82-16.96,10.23-25.44"/>
  <path class="cls-1" d="M97.87,50.6l.07-21.84c4.04-.03,8.07-.05,12.11-.08"/>
  <path class="cls-1" d="M97.87,37.94h6.33"/>
  <path class="cls-1" d="M95.92,49.53l14.61.34"/>
  <path class="cls-1" d="M118.62,55.46c-.49-9.11-.97-18.21-1.46-27.32,7.46,9.33,14.92,18.66,22.37,27.99-2-11.56-4-23.12-6-34.68"/>
  <path class="cls-1" d="M149.59,27.75l2.07,28.36c2.83-3.45,6.06-6.57,9.6-9.3"/>
  <path class="cls-1" d="M139.27,30.76c7.83-1.06,15.53-3.05,22.89-5.91"/>
  <path class="cls-1" d="M163.59,33.34c3.25,5.82,6.5,11.64,9.75,17.47.6-7.11,1.81-14.18,3.63-21.08"/>
  <path class="cls-1" d="M182.53,23.34c-.28,10.34,1.1,20.73,4.08,30.64"/>
  <path class="cls-1" d="M174.32,23.82c8.87-.02,17.75-.03,26.62-.05-6.37,4.68-12.15,10.16-17.16,16.27,6.78,3.58,15.29,3.68,22.16.26"/>
  <path class="cls-1" d="M208.38,22c2.54,10.61,5.59,21.09,9.13,31.41"/>
  <path class="cls-1" d="M208.89,23.82c7.3,0,14.61,0,21.91,0"/>
  <path class="cls-1" d="M212.78,37.94h8.28"/>
  <path class="cls-1" d="M216.68,51.19l12.18-.42"/>
  <path class="cls-1" d="M247.58,22.16c-5.26,4.22-10.53,8.43-15.79,12.65,6.95-1.43,14.07-2.06,21.16-1.88-5.71,4.58-9.76,11.19-11.22,18.37-.41,2.02-.28,4.7,1.66,5.41"/>
  <path class="cls-1" d="M47.37,23.88c1.81,11.25,4.13,22.43,6.93,33.48"/>
  <path class="cls-1" d="M34.65,26.14c6.99-.76,14.25-1.5,20.91.76s12.56,8.41,12.12,15.43c-.33,5.29-4.04,9.75-8.01,13.26s-8.47,6.61-11.35,11.07"/>
</svg>