<?xml version="1.0" encoding="UTF-8"?>
<svg id="adventures" xmlns="http://www.w3.org/2000/svg" viewBox="0 0 388.75 85.82">
  <defs>
    <style>
      .cls-1 {
        fill: none;
        stroke: #231f20;
        stroke-miterlimit: 10;
        stroke-width: 2px;
      }
    </style>
  </defs>
  <path class="cls-1" d="M8.97,70.41c.68-17.73,2.98-35.41,6.86-52.72,7.78,13.69,16.6,26.79,26.35,39.15"/>
  <path class="cls-1" d="M9.74,49.95c16.85-4.05,22.39-5.69,38.05-13.13"/>
  <path class="cls-1" d="M53.4,61.17c.57-12.81-.26-25.67-2.45-38.3,8.07,9.8,16.73,19.12,25.91,27.9-.04-10.98-.39-21.97-1.07-32.93"/>
  <path class="cls-1" d="M84.37,20.91c2.16,9.96,5.78,19.59,10.71,28.51,5.19-10.74,10.37-21.47,15.56-32.21"/>
  <path class="cls-1" d="M116.71,17.84c-.05,12.55.95,25.1,2.96,37.49"/>
  <path class="cls-1" d="M116.63,18.28c5.74,1.9,11.36,4.19,16.79,6.84-5.43,3.81-10.87,7.62-16.3,11.42,7.78,1.82,15.3,4.75,22.26,8.67-8.93-.64-18.05,3.96-22.82,11.54"/>
  <path class="cls-1" d="M147.7,19.96c.22,8.58.44,17.17.65,25.75"/>
  <path class="cls-1" d="M145.59,15.49l6.87-5.34"/>
  <path class="cls-1" d="M166.97,13.78c-3.29,4.1-6.88,7.98-10.72,11.57,5.45,1.94,10.89,3.89,16.34,5.83-5.71,2.57-10.35,7.46-12.62,13.3-.81,2.08-1.11,4.89.75,6.12"/>
</svg>