<?xml version="1.0" encoding="UTF-8"?>
<svg id="ar-headaer" xmlns="http://www.w3.org/2000/svg" viewBox="0 0 388.75 85.82">
  <defs>
    <style>
      .cls-1 {
        fill: none;
        stroke: #231f20;
        stroke-miterlimit: 10;
      }
    </style>
  </defs>
  <g id="posters">
    <path class="cls-1" d="M170.43,65.28c-.23-16.11-.45-32.27,1.19-48.3,11.75,5.52,24.11,9.76,36.77,12.62-13.63,2.95-27,7.1-39.91,12.39"/>
    <path class="cls-1" d="M191.99,42.81c-2.26,3.78-4.9,7.34-7.86,10.6,3.59,3.04,6.9,6.42,9.85,10.09,2.43-4.9,5.92-9.26,10.16-12.72-5.2-2.14-9.99-5.25-14.07-9.12"/>
    <path class="cls-1" d="M218.81,38.58c-4.56.21-9.06,1.77-12.77,4.43,5.15,2.65,10.31,5.3,15.46,7.95-3.39,3.75-6.7,7.56-9.92,11.45"/>
    <path class="cls-1" d="M226.65,29.05c-.4,12.26.52,24.56,2.74,36.63,2.99-5.04,7.35-9.26,12.48-12.08"/>
    <path class="cls-1" d="M218.87,41.58c8.48-1.2,16.95-2.41,25.43-3.61"/>
    <path class="cls-1" d="M247.23,45.14c5.97.52,12.03.13,17.88-1.15-4.08-3.48-8.84-6.16-13.93-7.83-.24,6.22-.48,12.44-.73,18.67,4.72-1.81,9.84-2.58,14.88-2.26"/>
    <path class="cls-1" d="M274.75,55.98c.05-6.21-.97-12.42-3-18.28,3.75-1.21,7.5-2.43,11.25-3.64"/>
    <path class="cls-1" d="M292.57,33.67l-11.98,7.62c5.54,2.89,11.08,5.78,16.62,8.66-8.04,2.92-15.53,7.37-21.94,13.03"/>
  </g>
  <g id="ar">
    <path class="cls-1" d="M69.7,63c4.68-15.77,9.37-31.55,14.05-47.32,5.77,15.07,10.2,30.65,13.21,46.51"/>
    <path class="cls-1" d="M53.81,41.69c14.66,1.56,29.48,1.72,44.17.47"/>
    <path class="cls-1" d="M105.45,18.02c2.52,15.17,3.77,30.55,3.74,45.93"/>
    <path class="cls-1" d="M94.4,17.59c13.99,1.89,28.08,3,42.2,3.32-9.63,5.49-19.26,10.98-28.89,16.47,9.06,5.2,17.4,11.64,24.71,19.09,2.36,2.4,4.71,4.97,7.81,6.27s7.23.88,9.11-1.91"/>
  </g>
</svg>