<?xml version="1.0" encoding="UTF-8"?>
<svg id="cup-melt" xmlns="http://www.w3.org/2000/svg" viewBox="0 0 385.13 85.82">
  <defs>
    <style>
      .cls-1 {
        fill: none;
        stroke: #231f20;
        stroke-miterlimit: 10;
        stroke-width: 2px;
      }
    </style>
  </defs>
  <path class="cls-1" d="M45.75,18.11c-8.07,11.6-17.44,22.29-27.88,31.81,14.15-.96,25.88,14.97,39.86,12.53"/>
  <path class="cls-1" d="M56.29,32.84c2.38,10.62,11.96,18.57,14.14,29.23,2.76-13.58,5.94-27.07,9.55-40.44"/>
  <path class="cls-1" d="M98.65,64.26l-4.17-46.2c9.63,3.99,19.42,7.61,29.33,10.86-9.83,4.29-18.91,10.3-26.7,17.68"/>
  <path class="cls-1" d="M157.77,63.83c.17-14-.12-28-.86-41.98,6.99,7.68,13.62,15.69,19.84,24.01,3.07-10.4,8.79-20.02,16.46-27.68-2.87,12.11-3.11,24.84-.7,37.05"/>
  <path class="cls-1" d="M206.28,59.26c-.05-9.3-.11-18.6-.16-27.89,8.56-2.07,17.12-4.15,25.68-6.22"/>
  <path class="cls-1" d="M206.23,41.93c4.63-.03,9.25-.67,13.71-1.89"/>
  <path class="cls-1" d="M206.23,58.31c10.37.41,20.76.13,31.09-.81"/>
  <path class="cls-1" d="M240.52,23.18l2.92,38.23c5.73-.86,11.46-1.73,17.2-2.59"/>
  <path class="cls-1" d="M270.3,23.15c-.72,12.82-.16,25.71,1.68,38.41"/>
  <path class="cls-1" d="M256.52,24.52c14.48,0,28.95,0,43.43,0"/>
</svg>