<?xml version="1.0" encoding="UTF-8"?>
<svg id="adventures" xmlns="http://www.w3.org/2000/svg" viewBox="0 0 388.75 85.82">
  <defs>
    <style>
      .cls-1 {
        fill: none;
        stroke: #231f20;
        stroke-miterlimit: 10;
        stroke-width: 2px;
      }
    </style>
  </defs>
  <path class="cls-1" d="M19.94,20.76c-.13,14-1.14,28-3.04,41.87"/>
  <path class="cls-1" d="M.88,16.95c7.57-1.53,15.09,2.05,22.33,4.73,8.82,3.27,18.08,5.31,27.46,6.04-12.12,11.96-24.25,23.92-36.37,35.88-2.27,2.24-4.65,4.67-5.33,7.78"/>
  <path class="cls-1" d="M69.5,18.81c.6,14.22-.46,28.5-3.15,42.47-2.58-9.6-12.8-16.5-22.67-15.3"/>
  <path class="cls-1" d="M54.93,19.6c12.17,1.73,24.82-.09,36.01-5.16"/>
  <path class="cls-1" d="M105.55,17.84c0,15.42,0,30.84,0,46.26"/>
  <path class="cls-1" d="M101.72,17.36l31.28,4.33c-9.6,5.82-18.91,12.11-27.89,18.84,7.24,1.51,14.42,3.3,21.51,5.36-7.73,6.32-15.47,12.64-23.2,18.95"/>
  <path class="cls-1" d="M130.39,34.89c4.04-2.75,8.08-5.5,12.11-8.26.03,12.82.06,25.64.09,38.46-3.2-6.32-7.14-12.26-11.7-17.68,6.57-3.28,13.52-5.82,20.66-7.55,1.93,5.95,3.86,11.89,5.79,17.84"/>
  <path class="cls-1" d="M162.84,37.23l11.16-19.8c4.83,8.65,11.26,16.41,18.86,22.75-5.28,6-10.57,12-15.85,18-4.75-7.56-9.49-15.12-14.24-22.68"/>
</svg>