<?xml version="1.0" encoding="UTF-8"?>
<svg id="gn-spinner" xmlns="http://www.w3.org/2000/svg" viewBox="0 0 446.29 85.82">
  <defs>
    <style>
      .cls-1 {
        fill: none;
        stroke: #231f20;
        stroke-miterlimit: 10;
        stroke-width: 2px;
      }
    </style>
  </defs>
  <path class="cls-1" d="M38.86,27.55c-6.14-4.08-11.91-8.72-17.22-13.84-2.56,10.48-7.31,20.42-13.84,29.01,6.08,4.09,11.99,8.43,17.71,13.01,3.9,3.13,7.37,6.79,10.27,10.85-1.45-8.75.84-18.06,6.18-25.14-6.73-.66-13.47-1.33-20.2-1.99"/>
  <path class="cls-1" d="M59.24,33.67c-2.1,5.58-4.97,10.86-8.51,15.65,7.28-.14,13.45,5.04,18.85,9.93-1.01-6.34-.24-12.96,2.19-18.9-4.42-2.3-9-4.28-13.71-5.93"/>
  <path class="cls-1" d="M87,32.99c-1.81,5.31-4.14,10.45-6.94,15.32,5.21,3.34,9.73,7.76,13.19,12.89,2.34-5.37,5.63-10.32,9.68-14.55-5.87-3.9-11.36-8.38-15.94-13.66Z"/>
  <path class="cls-1" d="M124.38,13.45c.64,18.61-.03,37.26-2.01,55.77-5.67-5.54-12.17-10.23-19.22-13.85,7-3.58,13.75-7.63,20.2-12.13"/>
  <path class="cls-1" d="M148.05,62.41c.08-12.6.17-25.19.25-37.79,8.09,11.45,17.63,21.88,28.32,30.95-3.19-15.04-4.67-30.44-4.42-45.81"/>
  <path class="cls-1" d="M212.46,36.64c0,6.75,0,13.5,0,20.25"/>
  <path class="cls-1" d="M211.36,27.9l5.88-.79"/>
  <path class="cls-1" d="M229.88,37.3c-3.71,2.08-7.34,4.28-10.9,6.6,4.89,1.87,10.12,2.85,15.36,2.86-.56,7.9-1.77,15.76-3.59,23.46-.57,2.4-2.66,4.22-4.98,5.06s-4.85.85-7.32.7c-3.88-.24-8.64-1.64-9.27-5.48"/>
  <path class="cls-1" d="M243.28,14.18l.38,40.86"/>
  <path class="cls-1" d="M243.01,39.57c3.49-.67,6.76-2.45,9.23-5.01,0,5.97-.02,11.94-.02,17.91"/>
  <path class="cls-1" d="M262.45,19.71c.09,13.1.18,26.2.27,39.29,3.77-4,7.55-8.01,11.32-12.01-3.87-1.13-7.74-2.27-11.61-3.4"/>
  <path class="cls-1" d="M187.79,43.23c4.15.35,8.34.11,12.42-.71-4.51-2.95-9.01-5.9-13.52-8.85.92,6.81,1.83,13.62,2.75,20.42,3.55-.86,7.21-1.27,10.87-1.21"/>
  <path class="cls-1" d="M293.09,36.33c-4.49,3.97-9.04,7.88-13.64,11.72,5.45,1.62,10.51,4.51,14.67,8.38,2.11-3.42,5.25-6.19,8.9-7.85-4.86-3-8.84-7.4-11.34-12.54"/>
  <path class="cls-1" d="M313,57.17l-3.94-14.85c-.32-1.19-.63-2.42-.44-3.64.67-4.24,6.54-5.36,8.73-9.05"/>
  <path class="cls-1" d="M352.63,21.05c-7.54,3.8-14.67,8.43-21.2,13.78,9.45,6.95,18.89,13.9,28.34,20.84-7.27,2.36-13.53,7.67-17.05,14.45"/>
  <path class="cls-1" d="M363.35,30.11c-.61,12.07.3,24.22,2.7,36.07"/>
  <path class="cls-1" d="M358.94,29.3c8.79-.81,17.72.05,26.19,2.51-9.05,5.64-17.81,11.75-26.21,18.31"/>
  <path class="cls-1" d="M388.34,42.56v25.4"/>
  <path class="cls-1" d="M388.78,22.12c3.7.08,7.4-1.26,10.2-3.68"/>
  <path class="cls-1" d="M401.13,64.79l-3.55-22.84c5.63,4.48,11.26,8.96,16.88,13.44.27-12.59.54-25.19.82-37.78"/>
</svg>