<?xml version="1.0" encoding="UTF-8"?>
<svg id="king-gizz" xmlns="http://www.w3.org/2000/svg" viewBox="0 0 388.75 85.82">
  <defs>
    <style>
      .cls-1 {
        fill: none;
        stroke: #231f20;
        stroke-miterlimit: 10;
        stroke-width: 2px;
      }
    </style>
  </defs>
  <path class="cls-1" d="M16.03,10.63c-.32,20.03-1.14,40.06-2.48,60.05"/>
  <path class="cls-1" d="M14.4,46.77c3.37,1.26,6.44,3.21,9.47,5.15,9.61,6.13,19.22,12.25,28.82,18.38"/>
  <path class="cls-1" d="M15.91,45.84c8.04-10.36,17.6-19.55,28.27-27.18"/>
  <path class="cls-1" d="M57.97,36.03c.02,10.41.76,20.81,2.22,31.12"/>
  <path class="cls-1" d="M57.33,29.37l1.56-1.98"/>
  <path class="cls-1" d="M69.98,65.62c.2-9.63-.36-19.28-1.67-28.83,3.77,8.86,7.94,18.21,15.93,23.57-.17-6-1.81-11.85-2.7-17.78s-.95-12.28,1.82-17.61c.64-1.24,1.58-2.51,2.95-2.77"/>
  <path class="cls-1" d="M105.12,18.38c-3.64,7.57-8.29,14.65-13.78,21.01,9.12,7.72,17.53,16.28,25.09,25.54-.95-6.84-1.91-13.67-2.86-20.51-.37-2.67-.53-5.9,1.64-7.51-4.06.18-8.11.8-12.04,1.84"/>
  <path class="cls-1" d="M160.82,16.71c-6.97,5.71-13.51,11.95-19.54,18.65,9.47,5.07,18.1,11.68,25.45,19.5-1.57-7.25-1.58-14.84-.03-22.09-4.24,1.15-8.65,1.66-13.04,1.52"/>
  <path class="cls-1" d="M177.51,32.94c0,8.39,0,16.78,0,25.18"/>
  <path class="cls-1" d="M175.55,23.48l4.41-2.88"/>
  <path class="cls-1" d="M185.9,24.56c6.9.05,13.8-.62,20.56-2.01-8.1,9.41-15.73,19.23-22.86,29.4,9.31-1.9,18.62-3.81,27.93-5.71"/>
  <path class="cls-1" d="M217.26,22.37c9.8.15,19.61-.85,29.18-2.99-9.3,10.26-18.02,21.05-26.11,32.3,3.72-1.2,7.66-1.72,11.56-1.52,2.51.13,5.03.55,7.54.3s5.09-1.32,6.41-3.46"/>
  <path class="cls-1" d="M282.94,49.66c-.79-4.45-1.55-9.15.02-13.38s6.39-7.62,10.6-5.96"/>
  <path class="cls-1" d="M303.06,50.02c-1.21-14.02-2.43-28.05-3.64-42.07,8.15,3.01,16.09,6.59,23.75,10.7-7.94,2.35-15.63,5.58-22.87,9.61"/>
  <path class="cls-1" d="M314.72,29.94c.18,6.38.36,12.76.54,19.15"/>
  <path class="cls-1" d="M314.5,30.76c3.46-.27,6.87-1.19,10.01-2.68"/>
  <path class="cls-1" d="M315.23,39.42h5.47"/>
  <path class="cls-1" d="M314.68,48.76l11.67-.09"/>
  <path class="cls-1" d="M335.08,19.36c.12,9.44.07,18.88-.15,28.32,4.29-3.21,8.33-6.76,12.08-10.6"/>
  <path class="cls-1" d="M326.91,20.57c9.17-1.03,18.35-2.06,27.52-3.1"/>
</svg>