<?xml version="1.0" encoding="UTF-8"?>
<svg id="lamb-city" xmlns="http://www.w3.org/2000/svg" viewBox="0 0 385.13 85.82">
  <defs>
    <style>
      .cls-1 {
        fill: none;
        stroke: #231f20;
        stroke-miterlimit: 10;
        stroke-width: 2px;
      }
    </style>
  </defs>
  <path class="cls-1" d="M17.46,19.46c-.02,16.86-.05,33.73-.07,50.59,8.36-6.13,17.61-11.05,27.37-14.55"/>
  <path class="cls-1" d="M32.66,35.48c3.3-3.76,7.36-6.85,11.87-9.01-1.56,7.58-3.12,15.16-4.67,22.74-3.44-1.44-6.69-3.33-9.64-5.61,6.63-2.91,13.51-5.26,20.54-7.02,2.57,8.26,4.3,16.78,5.15,25.38"/>
  <path class="cls-1" d="M60.51,23.31c.02,11.33.05,22.66.07,33.99"/>
  <path class="cls-1" d="M58.97,25.06l11.16,9.77c3.28-4.56,7.54-8.4,12.41-11.2-.2,10.98.51,21.98,2.15,32.84"/>
  <path class="cls-1" d="M95.06,18.05c-.4,13.6-.78,27.37,2.23,40.64.89-1.86,2.46-3.3,4.02-4.65,3.21-2.79,6.53-5.47,9.94-8.01-5.26-2.41-10.77-4.28-16.41-5.57"/>
  <path class="cls-1" d="M143.09,15.93c-7.18,5.05-14.37,10.11-21.55,15.16,9.24,5.44,18.06,11.6,26.35,18.41"/>
  <path class="cls-1" d="M154.81,30.59c0,8.43,0,16.86,0,25.29"/>
  <path class="cls-1" d="M154.61,25.53l5.67-3.44"/>
  <path class="cls-1" d="M171,15.41v39.36c5.4-5.45,11.28-10.44,17.54-14.88"/>
  <path class="cls-1" d="M164.91,33.75c9.68-3.07,19.81-4.71,29.97-4.85"/>
  <path class="cls-1" d="M199.33,28.36c2.1,2.85,4.47,5.5,7.07,7.9"/>
  <path class="cls-1" d="M213.96,27.39c-8.82,7.72-16.68,16.47-24.48,25.23-2.91,3.26-5.83,6.55-8.1,10.29-1.64,2.69-2.82,6.45-.68,8.76"/>
</svg>