<?xml version="1.0" encoding="UTF-8"?>
<svg id="adventures" xmlns="http://www.w3.org/2000/svg" viewBox="0 0 388.75 85.82">
  <defs>
    <style>
      .cls-1 {
        fill: none;
        stroke: #231f20;
        stroke-miterlimit: 10;
        stroke-width: 2px;
      }
    </style>
  </defs>
  <path class="cls-1" d="M10.78,16.89c.57,16.89.19,33.82-1.13,50.67,7.4-5.74,16.09-9.82,25.24-11.84"/>
  <path class="cls-1" d="M40.09,44.9c-.08,6.9.25,13.81.99,20.67"/>
  <path class="cls-1" d="M39.91,34.08l2.9-2.71"/>
  <path class="cls-1" d="M48.81,15.92l4.17-3.65c-.43,17.24,3.6,34.44,2.18,51.63,1.41-1.87,3.09-3.54,4.97-4.93"/>
  <path class="cls-1" d="M64.23,34.29c3.72,5.03,8.61,9.19,14.17,12.07"/>
  <path class="cls-1" d="M85.83,30.44c-3.74,13.3-14.54,23.44-20.18,36.05"/>
  <path class="cls-1" d="M99.65,20.01c3.69-3.02,8.41-4.78,13.18-4.91,2.56-.07,5.44.49,6.91,2.6.68.97.96,2.16,1.16,3.32,1.22,7.31-.92,15.12-5.7,20.79-3.45,4.09-7.66,7.53-12.36,10.08,4.08-4.33,10.8-5.44,16.55-3.87,2.62.71,5.13,1.92,7.83,2.19s5.81-.73,6.91-3.22"/>
</svg>