<?xml version="1.0" encoding="UTF-8"?>
<svg id="lily-9" xmlns="http://www.w3.org/2000/svg" viewBox="0 0 388.75 85.82">
  <defs>
    <style>
      .cls-1 {
        fill: none;
        stroke: #231f20;
        stroke-miterlimit: 10;
        stroke-width: 2px;
      }
    </style>
  </defs>
  <path class="cls-1" d="M10.44,10.34c-.07,18.79-.14,37.57-.21,56.36,15.21-5.33,32.13-3.14,47.43,1.9"/>
  <path class="cls-1" d="M42.61,31.16c-.01,8.05.14,16.09.45,24.13"/>
  <path class="cls-1" d="M43.21,21.09l9.53-5.61"/>
  <path class="cls-1" d="M55.41,24.35c3.78-1.4,7.52-2.94,11.19-4.6-4.72,15.81-2.31,32.77-3.59,49.22,1.77-2.24,3.96-4.15,6.43-5.59"/>
  <path class="cls-1" d="M74.17,28.09c2.42,5.52,5.57,10.72,9.36,15.41"/>
  <path class="cls-1" d="M90.5,26.28c-8.91,14.63-14.45,31.3-16.08,48.35"/>
  <path class="cls-1" d="M125.4,13.72c-5.86-2.95-13.38-2.25-18.59,1.73s-7.86,11.05-6.56,17.48c4.98,1.07,10.38-.49,14.22-3.83s6.13-8.32,6.47-13.4c-.36,15.34-.21,30.7.44,46.03"/>
</svg>