<?xml version="1.0" encoding="UTF-8"?>
<svg id="lizard-box" xmlns="http://www.w3.org/2000/svg" viewBox="0 0 385.13 85.82">
  <defs>
    <style>
      .cls-1 {
        fill: none;
        stroke: #231f20;
        stroke-miterlimit: 10;
        stroke-width: 2px;
      }
    </style>
  </defs>
  <path class="cls-1" d="M9.45,12.25c.14,19.06.28,38.13.42,57.19,10.35-2.88,20.97-4.81,31.68-5.76"/>
  <path class="cls-1" d="M32.34,33.26c-.45,7.45-.19,14.94.77,22.34"/>
  <path class="cls-1" d="M32.99,26.02l7.56-5.69"/>
  <path class="cls-1" d="M42.3,30.54c7.32.1,14.65.19,21.97.29-8.01,7.93-16.22,15.66-24.63,23.17,10.15-.67,20.32,4.4,30.26,2.26"/>
  <path class="cls-1" d="M73.87,36.99l18.41-9.27c.05,5.59-1.52,11.05-3.1,16.41-1.71,5.81-3.45,11.62-5.22,17.42-2.41-4.02-5.12-7.86-8.08-11.49,8.43-2.5,16.88-4.9,25.36-7.21.52,4.72,1.61,9.37,3.25,13.82"/>
  <path class="cls-1" d="M114.22,61.45c.16-7.79-.24-15.58-1.2-23.31,5.18-2.29,10.35-4.58,15.53-6.86"/>
  <path class="cls-1" d="M147.44,23.42c.26,12.19.46,24.72-3.76,36.17-4.94-3.67-10.32-6.77-15.98-9.19,6.83-2.21,13.63-4.49,20.4-6.85"/>
  <path class="cls-1" d="M178.78,16.14c.59,15.38,3.06,30.7,7.34,45.49"/>
  <path class="cls-1" d="M166.4,19.45c15.83-.21,31.65-.91,47.43-2.1-2.28.4-4.26,1.79-6.11,3.18-9.58,7.21-18.19,15.68-25.56,25.14,4.83-2.1,9.97-3.46,15.2-4.03-6.2,8.32-11.59,17.24-16.07,26.59"/>
  <path class="cls-1" d="M218.48,34.06c-4.23,6.99-8.38,14.03-12.43,21.12,7.81-1.16,15.81-1.05,23.59.34-5.08-5.81-9.12-12.52-11.87-19.73"/>
  <path class="cls-1" d="M256.57,26.42c-5.59,11.59-11.18,23.18-16.77,34.77"/>
  <path class="cls-1" d="M233.87,35.43c9.64,3.13,18.68,8.11,26.46,14.61"/>
</svg>