<?xml version="1.0" encoding="UTF-8"?>
<svg id="lamb-city" xmlns="http://www.w3.org/2000/svg" viewBox="0 0 385.13 85.82">
  <defs>
    <style>
      .cls-1 {
        fill: none;
        stroke: #231f20;
        stroke-miterlimit: 10;
        stroke-width: 2px;
      }
    </style>
  </defs>
  <path class="cls-1" d="M13.05,71.19c-1-19.06-2.31-38.11-3.91-57.13.73,2.06,2.13,3.81,3.51,5.51,12.29,15.14,25.17,29.81,38.59,43.96-.25-16.85-1.95-33.69-5.07-50.25"/>
  <path class="cls-1" d="M72.84,19.27c-3.06,8.15-7.52,15.77-13.14,22.42,1.84-.32,3.58.87,5.06,2.01,6.67,5.1,13.16,10.42,19.47,15.97,1.85-7.74,6.2-14.86,12.24-20.05-8.3-6.77-16.22-14-23.72-21.64"/>
  <path class="cls-1" d="M137.53,19.77c-3.39-2.48-6.62-5.17-9.67-8.06-.6,3.47-3.13,6.26-5.54,8.83-1.14,1.21-2.28,2.42-3.42,3.64-5.16,5.49-10.33,10.99-15.49,16.48.88-1.23,2.79-.16,3.8.96,7.74,8.62,13.62,19.16,23.15,25.75,4.88-8.86,9.03-18.12,12.37-27.67-5.89.63-11.85.48-17.7-.45"/>
  <path class="cls-1" d="M176.79,22.17c-5.1-2.64-9.83-5.97-14.05-9.87-2.24,9.66-6.13,18.94-11.43,27.32.63-.95,2.11-.24,2.94.53,4.23,3.93,8.08,8.28,11.48,12.95,2.84,3.9,5.74,8.31,10.37,9.66,1.36-7.57,3.71-14.97,6.96-21.94-5-.89-10.09-1.26-15.17-1.12"/>
  <path class="cls-1" d="M194.05,12.36c.1,14.22.2,28.44.3,42.66,6.73-2.42,13.89-3.65,21.05-3.61"/>
  <path class="cls-1" d="M220.61,22.59c-.19,11.13.92,22.29,3.31,33.17"/>
  <path class="cls-1" d="M220.11,22.93c6.17-.43,12.33-.87,18.5-1.3"/>
  <path class="cls-1" d="M221.49,37.3c3.68-.1,7.37-.19,11.05-.29"/>
  <path class="cls-1" d="M223.14,54.4c4.71.02,9.43-.41,14.06-1.29"/>
  <path class="cls-1" d="M269.54,19.77c-7.6,4.05-14.72,8.99-21.19,14.67,12.11.03,24.21,2.77,35.16,7.95-7.01,6.18-12.86,13.66-17.18,21.95"/>
</svg>