<?xml version="1.0" encoding="UTF-8"?>
<svg id="ruth" xmlns="http://www.w3.org/2000/svg" viewBox="0 0 385.13 85.82">
  <defs>
    <style>
      .cls-1 {
        fill: none;
        stroke: #231f20;
        stroke-miterlimit: 10;
        stroke-width: 2px;
      }
    </style>
  </defs>
  <path class="cls-1" d="M17.71,67.02c-1.24-11.25-2.47-22.5-3.71-33.75-.71-6.48-1.47-13.12-4.44-18.93,5.79-.82,11.42,1.86,17.15,3.02,5.58,1.12,11.26,1.69,16.95,1.7-10.97,7.14-21.02,15.72-29.79,25.45,5.69,5.02,12.31,9.24,19.71,10.91s15.67.55,21.63-4.14"/>
  <path class="cls-1" d="M59.84,31.79c3.93,12,7.86,24,11.78,36,4.23-11.74,7.65-23.77,10.24-35.98"/>
  <path class="cls-1" d="M99.02,18.99c.64,15.22,2.1,30.41,4.37,45.47,4.13-3.53,8.25-7.07,12.38-10.6"/>
  <path class="cls-1" d="M89.09,45.76c6.97-2.16,14.09-3.84,21.29-5.01"/>
  <path class="cls-1" d="M124.1,14.29c-.57,17.26-.21,34.55,1.06,51.77"/>
  <path class="cls-1" d="M123.55,46.3c5.07-3.27,10.14-6.55,15.21-9.82.68,10.48,1.54,21.21,5.97,30.73"/>
</svg>