<?xml version="1.0" encoding="UTF-8"?>
<svg id="adventures" xmlns="http://www.w3.org/2000/svg" viewBox="0 0 388.75 85.82">
  <defs>
    <style>
      .cls-1 {
        fill: none;
        stroke: #231f20;
        stroke-miterlimit: 10;
        stroke-width: 2px;
      }
    </style>
  </defs>
  <path class="cls-1" d="M16.93,29.52c-.03,11.15-.06,22.3-.09,33.45,5.21-6.07,11.55-11.16,18.6-14.93"/>
  <path class="cls-1" d="M.86,31.47c11.1.58,22.28-.43,33.1-2.98"/>
  <path class="cls-1" d="M40.22,28.06c.08,10.71.15,21.43.23,32.14"/>
  <path class="cls-1" d="M40.3,45.12c5.26-.07,10.49-1.58,14.98-4.33-1.19,4.91-1.64,9.99-1.33,15.03"/>
  <path class="cls-1" d="M61.72,47.06c4.56.27,9.16-.11,13.61-1.12-4.52-2.35-8.88-5.01-13.05-7.94.28,6-.56,12.05-2.47,17.75,4.04.02,8.09.05,12.13.07"/>
  <path class="cls-1" d="M112.8,23.05c-9.74,5.08-19.47,10.16-29.21,15.24,8.34,3.07,16.37,6.97,23.93,11.62-7.77,3.63-13.64,11.09-15.35,19.5"/>
  <path class="cls-1" d="M128.6,33.82c-4.85,3.02-9.69,6.04-14.54,9.07,7.28,2.43,13.75,7.21,18.2,13.46"/>
  <path class="cls-1" d="M142.11,33.91c-.36,9.75-.1,19.51.79,29.23"/>
  <path class="cls-1" d="M142.16,25.35l5.32-2.51"/>
  <path class="cls-1" d="M153.27,45.09c5.47.45,11.06-.51,16.07-2.76-5.16-2.82-10.64-5.06-16.3-6.68.82,7.27,1.64,14.54,2.45,21.81,4.5-1.28,9.17-1.98,13.85-2.06"/>
  <path class="cls-1" d="M177.52,30.5c.13,8.28.27,16.56.4,24.83"/>
  <path class="cls-1" d="M176.65,38.51c4.84-.32,9.62-1.55,14.02-3.62-.21,6.83.14,13.67,1.06,20.43"/>
  <path class="cls-1" d="M204.76,21.24c-.03,14.89.7,29.78,2.19,44.6,2.32-5.27,6.51-9.7,11.64-12.3"/>
  <path class="cls-1" d="M196.66,38.16c6.97-1.05,13.94-2.1,20.9-3.15"/>
  <path class="cls-1" d="M224.12,37.33l1.47,22.4"/>
  <path class="cls-1" d="M220.93,25.19c-2.62-1.06-4.97-2.76-6.78-4.93"/>
  <path class="cls-1" d="M247.15,30.75c-4.03,1.75-7.86,3.94-11.4,6.54,5.43,2.22,10.68,4.9,15.66,8-5.72,2.19-10.7,6.27-13.97,11.45"/>
  <path class="cls-1" d="M259.56,22.72c.53,12.11,1.05,24.23,1.58,36.34,3.2-3.65,6.89-6.88,10.94-9.55"/>
  <path class="cls-1" d="M251.14,34.88h17.53"/>
</svg>