<?xml version="1.0" encoding="UTF-8"?>
<svg id="tobi" xmlns="http://www.w3.org/2000/svg" viewBox="0 0 385.13 85.82">
  <defs>
    <style>
      .cls-1 {
        fill: none;
        stroke: #231f20;
        stroke-miterlimit: 10;
        stroke-width: 2px;
      }
    </style>
  </defs>
  <path class="cls-1" d="M19.59,21.9l-.07,49.84c5.41-5.86,11.63-10.96,18.43-15.13"/>
  <path class="cls-1" d="M-.83,25.09c19.49-.01,38.97-1.77,58.15-5.26"/>
  <path class="cls-1" d="M54.33,34.93c-4.07,7.46-8.15,14.91-12.22,22.37,4.08,1.12,7.93,3.05,11.26,5.66,3.6-5.61,7.86-10.8,12.67-15.42-4.28-3.59-8.56-7.18-12.84-10.77"/>
  <path class="cls-1" d="M72.19,14.77c-.64,16.79-.24,33.63,1.2,50.37,5.44-5.07,11.35-9.63,17.63-13.6-6.62-1.45-13.07-3.7-19.15-6.71"/>
  <path class="cls-1" d="M101.19,41.8v17.85"/>
  <path class="cls-1" d="M98.68,25.2c2.89-.52,5.78-1.05,8.66-1.57"/>
</svg>